<svg width="19" height="19" viewBox="0 0 19 19" fill="none" xmlns="http://www.w3.org/2000/svg">
<path d="M13.813 8.75817H3.45312V5.01711C3.45426 4.63585 3.60622 4.27053 3.87582 4.00094C4.14541 3.73135 4.51073 3.57939 4.89199 3.57825H13.5252C13.9065 3.57939 14.2718 3.73135 14.5414 4.00094C14.811 4.27053 14.9629 4.63585 14.9641 5.01711V8.75817H13.813Z" stroke="#4B5563" stroke-width="1.53479" stroke-linecap="round" stroke-linejoin="round"/>
<path d="M1.72656 15.0892V11.0604C1.72837 10.4503 1.9715 9.86582 2.40285 9.43447C2.8342 9.00311 3.41873 8.75998 4.02875 8.75818H14.3886C14.9986 8.75998 15.5831 9.00311 16.0145 9.43447C16.4459 9.86582 16.689 10.4503 16.6908 11.0604V15.0892" stroke="#4B5563" stroke-width="1.53479" stroke-linecap="round" stroke-linejoin="round"/>
<path d="M1.72656 15.0892V14.8014C1.72723 14.5727 1.8184 14.3535 1.98016 14.1917C2.14192 14.0299 2.36112 13.9388 2.58988 13.9381H15.8275C16.0562 13.9388 16.2754 14.0299 16.4372 14.1917C16.599 14.3535 16.6901 14.5727 16.6908 14.8014V15.0892" stroke="#4B5563" stroke-width="1.53479" stroke-linecap="round" stroke-linejoin="round"/>
</svg>
