<svg width="11" height="14" viewBox="0 0 11 14" fill="none" xmlns="http://www.w3.org/2000/svg">
<path d="M9.375 5.15625C9.375 4.03737 8.93053 2.96431 8.13936 2.17314C7.34819 1.38197 6.27513 0.9375 5.15625 0.9375C4.03737 0.9375 2.96431 1.38197 2.17314 2.17314C1.38197 2.96431 0.9375 4.03737 0.9375 5.15625C0.9375 6.88688 2.32219 9.1425 5.15625 11.8444C7.99031 9.1425 9.375 6.88688 9.375 5.15625ZM5.15625 13.125C1.71844 10.0003 0 7.34344 0 5.15625C0 3.78873 0.543246 2.47722 1.51023 1.51023C2.47722 0.543246 3.78873 0 5.15625 0C6.52377 0 7.83529 0.543246 8.80227 1.51023C9.76925 2.47722 10.3125 3.78873 10.3125 5.15625C10.3125 7.34344 8.59406 10.0003 5.15625 13.125Z" fill="#4B5563"/>
<path d="M5.15625 6.5625C5.52921 6.5625 5.8869 6.41434 6.15062 6.15062C6.41434 5.8869 6.5625 5.52921 6.5625 5.15625C6.5625 4.78329 6.41434 4.4256 6.15062 4.16188C5.8869 3.89816 5.52921 3.75 5.15625 3.75C4.78329 3.75 4.4256 3.89816 4.16188 4.16188C3.89816 4.4256 3.75 4.78329 3.75 5.15625C3.75 5.52921 3.89816 5.8869 4.16188 6.15062C4.4256 6.41434 4.78329 6.5625 5.15625 6.5625ZM5.15625 7.5C4.53465 7.5 3.93851 7.25307 3.49897 6.81353C3.05943 6.37399 2.8125 5.77785 2.8125 5.15625C2.8125 4.53465 3.05943 3.93851 3.49897 3.49897C3.93851 3.05943 4.53465 2.8125 5.15625 2.8125C5.77785 2.8125 6.37399 3.05943 6.81353 3.49897C7.25307 3.93851 7.5 4.53465 7.5 5.15625C7.5 5.77785 7.25307 6.37399 6.81353 6.81353C6.37399 7.25307 5.77785 7.5 5.15625 7.5Z" fill="#4B5563"/>
</svg>
