<svg width="44" height="45" viewBox="0 0 44 45" fill="none" xmlns="http://www.w3.org/2000/svg">
<rect y="0.5" width="44" height="44" rx="7.33333" fill="#7ADA66"/>
<path d="M22.0131 12.4998C16.5069 12.4998 12.0245 16.9783 12.0225 22.4845C12.0215 24.2446 12.4825 25.9629 13.3565 27.4769L12.001 32.5006L17.2336 31.2642C18.6927 32.0602 20.3352 32.4781 22.0072 32.4791H22.0111C27.5164 32.4791 31.9968 27.9995 31.9998 22.4943C32.0018 19.8252 30.9639 17.3157 29.0778 15.4276C27.1918 13.5405 24.6852 12.5008 22.0131 12.4998ZM22.0111 14.4998C24.1472 14.5008 26.1546 15.3337 27.6637 16.8417C29.1728 18.3518 30.0017 20.3583 29.9997 22.4923C29.9977 26.8965 26.4154 30.479 22.0092 30.479C20.6761 30.478 19.3557 30.1433 18.1926 29.5082L17.5188 29.141L16.7746 29.3168L14.8058 29.7817L15.2863 27.9965L15.5031 27.1957L15.089 26.4769C14.391 25.2688 14.0215 23.8876 14.0225 22.4845C14.0245 18.0824 17.608 14.4998 22.0111 14.4998ZM18.4778 17.875C18.3108 17.875 18.0408 17.9375 17.8118 18.1875C17.5827 18.4365 16.9367 19.0396 16.9367 20.2676C16.9367 21.4957 17.8313 22.6828 17.9563 22.8498C18.0803 23.0158 19.683 25.6155 22.2201 26.6156C24.3282 27.4466 24.7564 27.2826 25.2144 27.2406C25.6724 27.1996 26.692 26.638 26.9 26.055C27.108 25.472 27.1085 24.9704 27.0465 24.8674C26.9845 24.7634 26.818 24.7014 26.568 24.5764C26.319 24.4514 25.0918 23.8488 24.8628 23.7658C24.6338 23.6828 24.4663 23.6408 24.3003 23.8908C24.1343 24.1408 23.6572 24.7014 23.5112 24.8674C23.3652 25.0344 23.2202 25.0569 22.9702 24.9319C22.7202 24.8059 21.9163 24.5416 20.9623 23.6916C20.2202 23.0306 19.7195 22.215 19.5735 21.965C19.4285 21.716 19.5599 21.5792 19.6849 21.4552C19.7969 21.3432 19.9329 21.1637 20.0579 21.0177C20.1819 20.8717 20.2249 20.7676 20.3079 20.6016C20.391 20.4356 20.3485 20.2891 20.2865 20.1641C20.2245 20.0391 19.7389 18.8065 19.5169 18.3125C19.3299 17.8975 19.1324 17.8878 18.9544 17.8808C18.8094 17.8748 18.6438 17.875 18.4778 17.875Z" fill="white"/>
</svg>
