<svg width="85" height="33" viewBox="0 0 85 33" fill="none" xmlns="http://www.w3.org/2000/svg">
<rect x="0.5" y="0.5" width="84" height="32" rx="16" fill="#CDE9FF"/>
<rect x="0.5" y="0.5" width="84" height="32" rx="16" stroke="#2D96EA"/>
<path fill-rule="evenodd" clip-rule="evenodd" d="M15.3272 10.9367C15.8738 10.8931 16.3927 10.6782 16.81 10.3225C17.784 9.49252 19.2164 9.49252 20.1903 10.3225C20.6077 10.6782 21.1266 10.8931 21.6732 10.9367C22.9488 11.0385 23.9617 12.0514 24.0634 13.327C24.1071 13.8736 24.322 14.3925 24.6777 14.8099C25.5077 15.7838 25.5077 17.2162 24.6777 18.1902C24.322 18.6075 24.1071 19.1264 24.0634 19.6731C23.9617 20.9486 22.9488 21.9615 21.6732 22.0633C21.1266 22.1069 20.6077 22.3218 20.1903 22.6776C19.2164 23.5075 17.784 23.5075 16.81 22.6776C16.3927 22.3218 15.8738 22.1069 15.3272 22.0633C14.0516 21.9615 13.0387 20.9486 12.9369 19.6731C12.8933 19.1264 12.6783 18.6075 12.3227 18.1902C11.4927 17.2162 11.4927 15.7838 12.3227 14.8099C12.6783 14.3925 12.8933 13.8736 12.9369 13.327C13.0387 12.0514 14.0516 11.0385 15.3272 10.9367ZM21.6512 15.4011C21.9832 15.0691 21.9832 14.5309 21.6512 14.199C21.3193 13.867 20.7811 13.867 20.4492 14.199L17.6502 16.9979L16.5512 15.899C16.2193 15.567 15.6811 15.567 15.3491 15.899C15.0172 16.2309 15.0172 16.7691 15.3491 17.101L17.0491 18.801C17.3811 19.133 17.9193 19.133 18.2512 18.801L21.6512 15.4011Z" fill="#1F6094"/>
<path d="M34.7094 21L31.5414 12.06H33.0654L35.6574 19.692H35.3574L37.9374 12.06H39.4614L36.2934 21H34.7094ZM42.5314 21.144C41.8834 21.144 41.3074 20.996 40.8034 20.7C40.3074 20.396 39.9194 19.988 39.6394 19.476C39.3594 18.956 39.2194 18.376 39.2194 17.736C39.2194 17.08 39.3594 16.5 39.6394 15.996C39.9274 15.492 40.3114 15.096 40.7914 14.808C41.2714 14.512 41.8154 14.364 42.4234 14.364C42.9114 14.364 43.3474 14.448 43.7314 14.616C44.1154 14.784 44.4394 15.016 44.7034 15.312C44.9674 15.6 45.1674 15.932 45.3034 16.308C45.4474 16.684 45.5194 17.084 45.5194 17.508C45.5194 17.612 45.5154 17.72 45.5074 17.832C45.4994 17.944 45.4834 18.048 45.4594 18.144H40.2874V17.064H44.6914L44.0434 17.556C44.1234 17.164 44.0954 16.816 43.9594 16.512C43.8314 16.2 43.6314 15.956 43.3594 15.78C43.0954 15.596 42.7834 15.504 42.4234 15.504C42.0634 15.504 41.7434 15.596 41.4634 15.78C41.1834 15.956 40.9674 16.212 40.8154 16.548C40.6634 16.876 40.6034 17.276 40.6354 17.748C40.5954 18.188 40.6554 18.572 40.8154 18.9C40.9834 19.228 41.2154 19.484 41.5114 19.668C41.8154 19.852 42.1594 19.944 42.5434 19.944C42.9354 19.944 43.2674 19.856 43.5394 19.68C43.8194 19.504 44.0394 19.276 44.1994 18.996L45.3034 19.536C45.1754 19.84 44.9754 20.116 44.7034 20.364C44.4394 20.604 44.1194 20.796 43.7434 20.94C43.3754 21.076 42.9714 21.144 42.5314 21.144ZM46.5428 21V14.508H47.8388V15.816L47.7188 15.624C47.8628 15.2 48.0948 14.896 48.4148 14.712C48.7348 14.52 49.1188 14.424 49.5668 14.424H49.9628V15.66H49.3988C48.9508 15.66 48.5868 15.8 48.3068 16.08C48.0348 16.352 47.8988 16.744 47.8988 17.256V21H46.5428ZM50.5904 21V14.508H51.9464V21H50.5904ZM50.5904 13.62V12.06H51.9464V13.62H50.5904ZM53.9638 21V15.732H52.7638V14.508H53.9638V14.172C53.9638 13.684 54.0638 13.276 54.2638 12.948C54.4638 12.612 54.7398 12.356 55.0918 12.18C55.4518 12.004 55.8638 11.916 56.3278 11.916C56.4158 11.916 56.5158 11.924 56.6278 11.94C56.7398 11.948 56.8318 11.96 56.9038 11.976V13.152C56.8398 13.136 56.7678 13.128 56.6878 13.128C56.6078 13.12 56.5438 13.116 56.4958 13.116C56.1358 13.116 55.8478 13.2 55.6318 13.368C55.4158 13.528 55.3078 13.796 55.3078 14.172V14.508H56.7958V15.732H55.3078V21H53.9638ZM57.6428 21V14.508H58.9988V21H57.6428ZM57.6428 13.62V12.06H58.9988V13.62H57.6428ZM63.3322 21.144C62.6842 21.144 62.1082 20.996 61.6042 20.7C61.1082 20.396 60.7202 19.988 60.4402 19.476C60.1602 18.956 60.0202 18.376 60.0202 17.736C60.0202 17.08 60.1602 16.5 60.4402 15.996C60.7282 15.492 61.1122 15.096 61.5922 14.808C62.0722 14.512 62.6162 14.364 63.2242 14.364C63.7122 14.364 64.1482 14.448 64.5322 14.616C64.9162 14.784 65.2402 15.016 65.5042 15.312C65.7682 15.6 65.9682 15.932 66.1042 16.308C66.2482 16.684 66.3202 17.084 66.3202 17.508C66.3202 17.612 66.3162 17.72 66.3082 17.832C66.3002 17.944 66.2842 18.048 66.2602 18.144H61.0882V17.064H65.4922L64.8442 17.556C64.9242 17.164 64.8962 16.816 64.7602 16.512C64.6322 16.2 64.4322 15.956 64.1602 15.78C63.8962 15.596 63.5842 15.504 63.2242 15.504C62.8642 15.504 62.5442 15.596 62.2642 15.78C61.9842 15.956 61.7682 16.212 61.6162 16.548C61.4642 16.876 61.4042 17.276 61.4362 17.748C61.3962 18.188 61.4562 18.572 61.6162 18.9C61.7842 19.228 62.0162 19.484 62.3122 19.668C62.6162 19.852 62.9602 19.944 63.3442 19.944C63.7362 19.944 64.0682 19.856 64.3402 19.68C64.6202 19.504 64.8402 19.276 65.0002 18.996L66.1042 19.536C65.9762 19.84 65.7762 20.116 65.5042 20.364C65.2402 20.604 64.9202 20.796 64.5442 20.94C64.1762 21.076 63.7722 21.144 63.3322 21.144ZM70.3436 21.144C69.7196 21.144 69.1596 20.996 68.6636 20.7C68.1756 20.396 67.7876 19.988 67.4996 19.476C67.2196 18.964 67.0796 18.388 67.0796 17.748C67.0796 17.108 67.2236 16.532 67.5116 16.02C67.7996 15.508 68.1876 15.104 68.6756 14.808C69.1636 14.512 69.7156 14.364 70.3316 14.364C70.8516 14.364 71.3116 14.468 71.7116 14.676C72.1116 14.884 72.4276 15.172 72.6596 15.54L72.4556 15.852V11.916H73.7996V21H72.5156V19.68L72.6716 19.932C72.4476 20.324 72.1276 20.624 71.7116 20.832C71.2956 21.04 70.8396 21.144 70.3436 21.144ZM70.4756 19.884C70.8516 19.884 71.1876 19.792 71.4836 19.608C71.7876 19.424 72.0236 19.172 72.1916 18.852C72.3676 18.524 72.4556 18.156 72.4556 17.748C72.4556 17.34 72.3676 16.976 72.1916 16.656C72.0236 16.336 71.7876 16.084 71.4836 15.9C71.1876 15.716 70.8516 15.624 70.4756 15.624C70.0996 15.624 69.7596 15.716 69.4556 15.9C69.1516 16.084 68.9156 16.336 68.7476 16.656C68.5796 16.976 68.4956 17.34 68.4956 17.748C68.4956 18.156 68.5796 18.524 68.7476 18.852C68.9156 19.172 69.1476 19.424 69.4436 19.608C69.7476 19.792 70.0916 19.884 70.4756 19.884Z" fill="#1F6094"/>
</svg>
