<svg width="18" height="18" viewBox="0 0 18 18" fill="none" xmlns="http://www.w3.org/2000/svg">
<path fill-rule="evenodd" clip-rule="evenodd" d="M5.64011 3.10945C6.21887 3.06326 6.76832 2.83568 7.21022 2.45909C8.24144 1.58029 9.75814 1.58029 10.7894 2.45909C11.2313 2.83568 11.7807 3.06326 12.3595 3.10945C13.71 3.21722 14.7826 4.28971 14.8903 5.64029C14.9366 6.21906 15.1641 6.7685 15.5407 7.21041C16.4195 8.24163 16.4195 9.75833 15.5407 10.7895C15.1641 11.2314 14.9366 11.7809 14.8903 12.3597C14.7826 13.7102 13.71 14.7828 12.3595 14.8905C11.7807 14.9367 11.2313 15.1643 10.7894 15.5409C9.75814 16.4197 8.24144 16.4197 7.21022 15.5409C6.76832 15.1643 6.21887 14.9367 5.64011 14.8905C4.28953 14.7828 3.21704 13.7102 3.10927 12.3597C3.06308 11.7809 2.8355 11.2314 2.45891 10.7895C1.5801 9.75833 1.5801 8.24163 2.45891 7.21041C2.8355 6.7685 3.06308 6.21906 3.10927 5.64029C3.21704 4.28971 4.28953 3.21722 5.64011 3.10945ZM12.3362 7.83638C12.6876 7.48491 12.6876 6.91506 12.3362 6.56359C11.9847 6.21212 11.4149 6.21212 11.0634 6.56359L8.0998 9.5272L6.9362 8.36359C6.58472 8.01212 6.01488 8.01212 5.6634 8.36359C5.31194 8.71506 5.31194 9.28492 5.6634 9.63637L7.4634 11.4364C7.81488 11.7878 8.38472 11.7878 8.7362 11.4364L12.3362 7.83638Z" fill="#2D96EA"/>
</svg>
