<svg width="18" height="18" viewBox="0 0 18 18" fill="none" xmlns="http://www.w3.org/2000/svg">
<g clip-path="url(#clip0_2723_17484)">
<path d="M1.5 4.5C1.5 2.84314 2.84314 1.5 4.5 1.5H13.5C15.1568 1.5 16.5 2.84314 16.5 4.5V13.5C16.5 15.1568 15.1568 16.5 13.5 16.5H4.5C2.84314 16.5 1.5 15.1568 1.5 13.5V4.5Z" stroke="#6B7280" stroke-width="1.4" stroke-linecap="round" stroke-linejoin="round"/>
<path d="M6.375 8.25C7.41053 8.25 8.25 7.41053 8.25 6.375C8.25 5.33947 7.41053 4.5 6.375 4.5C5.33947 4.5 4.5 5.33947 4.5 6.375C4.5 7.41053 5.33947 8.25 6.375 8.25Z" stroke="#6B7280" stroke-width="1.4" stroke-linecap="round" stroke-linejoin="round"/>
<path d="M10.8947 9.46582L4.5 16.5H13.5996C15.2015 16.5 16.5 15.2014 16.5 13.5996V13.5C16.5 13.1501 16.3688 13.016 16.1324 12.7581L13.1103 9.46124C12.5141 8.81092 11.4882 8.81302 10.8947 9.46582Z" stroke="#6B7280" stroke-width="1.4" stroke-linecap="round" stroke-linejoin="round"/>
</g>
<defs>
<clipPath id="clip0_2723_17484">
<rect width="18" height="18" fill="white"/>
</clipPath>
</defs>
</svg>
